<?xml version="1.0" standalone="no"?>
<!DOCTYPE svg PUBLIC "-//W3C//DTD SVG 20010904//EN"
 "http://www.w3.org/TR/2001/REC-SVG-20010904/DTD/svg10.dtd">
<svg version="1.0" xmlns="http://www.w3.org/2000/svg"
 width="225.000000pt" height="225.000000pt" viewBox="0 0 225.000000 225.000000"
 preserveAspectRatio="xMidYMid meet">
<metadata>
Created by potrace 1.16, written by Peter Selinger 2001-2019
</metadata>
<g transform="translate(0.000000,225.000000) scale(0.100000,-0.100000)"
fill="#000000" stroke="none">
<path d="M219 1468 c-1 -2 -9 -39 -18 -83 l-16 -80 -67 -40 c-36 -22 -69 -43
-72 -46 -6 -5 66 -59 78 -59 3 0 63 93 121 187 1 2 36 6 79 10 l77 6 -33 20
c-18 11 -57 35 -85 53 -49 32 -61 38 -64 32z"/>
<path d="M1941 1418 c-47 -29 -81 -53 -75 -54 5 -1 39 -5 75 -9 l65 -6 58 -95
c32 -52 60 -94 62 -94 2 0 23 12 45 27 24 15 36 30 31 35 -5 5 -38 26 -73 46
l-63 37 -15 83 c-8 45 -17 82 -20 82 -3 0 -44 -24 -90 -52z"/>
<path d="M173 1198 c-74 -121 -80 -134 -65 -146 36 -29 282 -141 382 -175 508
-170 1068 -129 1538 113 150 77 145 54 51 208 -45 73 -84 132 -88 130 -3 -2
-58 -29 -121 -60 -147 -72 -262 -112 -415 -143 -364 -74 -735 -24 -1074 143
-64 31 -119 58 -122 60 -3 1 -42 -57 -86 -130z"/>
</g>
</svg>
